<svg width="1080" height="1080" viewBox="0 0 1080 1080" fill="none" xmlns="http://www.w3.org/2000/svg">
<g clip-path="url(#clip0_2313_105)">
<ellipse cx="539.651" cy="540.484" rx="429.762" ry="328.129" transform="rotate(-40.9439 539.651 540.484)" fill="white"/>
<path fill-rule="evenodd" clip-rule="evenodd" d="M477.456 198.525C475.903 230.602 475.127 262.68 475.127 294.757C475.602 347.953 476.55 401.15 477.973 454.346C479.396 507.542 480.345 560.738 480.819 613.935C481.768 667.131 480.582 720.035 477.262 772.646C480.582 771.477 487.222 771.185 497.183 771.77C507.143 772.354 517.578 772.646 528.487 772.646C539.87 773.231 550.305 773.231 559.791 772.646C569.277 772.646 575.206 770.893 577.577 767.385C576.629 744.002 575.917 715.651 575.443 682.33C574.969 648.425 574.732 612.181 574.732 573.599V453.469C575.206 411.964 575.68 371.921 576.154 333.339C576.629 294.757 577.103 258.514 577.577 224.608C577.854 204.854 578.05 186.786 578.165 170.404C690.504 152.602 797.061 181.384 864.27 258.853C983.027 395.738 933.961 632.796 754.678 788.337C575.395 943.878 333.785 959.001 215.027 822.115C96.2701 685.23 145.336 448.172 324.619 292.631C372.316 251.252 424.424 219.81 477.456 198.525Z" fill="#021846"/>
<path d="M751.594 690.45C751.594 696.766 751.77 702.907 752.12 708.872C752.12 710.977 751.068 712.732 748.962 714.136C746.857 715.188 744.225 716.065 741.067 716.767C737.909 717.469 734.401 717.995 730.541 718.346C726.681 718.346 723.172 718.346 720.014 718.346C711.242 718.346 702.119 717.995 692.645 717.294C683.522 716.241 675.451 715.364 668.433 714.662V714.136V663.081C668.433 629.045 669.486 595.36 671.591 562.025C673.697 528.691 674.749 495.005 674.749 460.969C674.749 459.215 674.749 457.636 674.749 456.232C674.749 454.828 674.574 453.249 674.223 451.495C672.469 451.144 670.89 452.548 669.486 455.706C668.082 458.513 666.503 461.846 664.749 465.706C662.995 469.215 661.065 472.548 658.959 475.706C656.854 478.864 654.398 480.443 651.591 480.443C649.836 480.443 645.626 479.742 638.959 478.338C632.292 476.934 625.099 475.18 617.379 473.075C609.659 470.969 602.817 468.864 596.852 466.759C590.887 464.653 587.904 462.723 587.904 460.969C588.255 456.758 590.01 451.144 593.168 444.126C596.326 437.109 600.01 429.389 604.221 420.968C608.782 412.546 613.695 403.949 618.958 395.177C624.221 386.405 629.134 378.335 633.695 370.966C638.257 363.597 642.117 357.457 645.275 352.544C648.784 347.281 650.889 344.298 651.591 343.597C659.661 343.246 667.556 343.07 675.276 343.07C683.346 342.719 691.417 342.544 699.487 342.544C708.61 342.544 717.733 342.719 726.856 343.07C735.98 343.421 745.278 343.947 754.752 344.649C755.805 359.737 756.507 374.65 756.857 389.388C757.208 403.774 757.384 418.336 757.384 433.073C757.384 473.426 756.331 513.251 754.226 552.551C752.471 591.851 751.594 631.677 751.594 672.029C751.594 677.994 751.594 684.134 751.594 690.45Z" fill="white"/>
<path d="M439.864 690.45C439.864 696.766 440.039 702.907 440.39 708.872C440.39 710.977 439.337 712.732 437.232 714.136C435.127 715.188 432.495 716.065 429.337 716.767C426.179 717.469 422.67 717.995 418.81 718.346C414.951 718.346 411.442 718.346 408.284 718.346C399.511 718.346 390.388 717.995 380.914 717.294C371.791 716.241 363.721 715.364 356.703 714.662V714.136V663.081C356.703 629.045 357.756 595.36 359.861 562.025C361.966 528.691 363.019 495.005 363.019 460.969C363.019 459.215 363.019 457.636 363.019 456.232C363.019 454.828 362.843 453.249 362.493 451.495C360.738 451.144 359.159 452.548 357.756 455.706C356.352 458.513 354.773 461.846 353.019 465.706C351.264 469.215 349.334 472.548 347.229 475.706C345.124 478.864 342.667 480.443 339.86 480.443C338.106 480.443 333.895 479.742 327.228 478.338C320.561 476.934 313.368 475.18 305.649 473.075C297.929 470.969 291.087 468.864 285.122 466.759C279.156 464.653 276.174 462.723 276.174 460.969C276.525 456.758 278.279 451.144 281.437 444.126C284.595 437.109 288.28 429.389 292.49 420.968C297.052 412.546 301.964 403.949 307.228 395.177C312.491 386.405 317.403 378.335 321.965 370.966C326.526 363.597 330.386 357.457 333.544 352.544C337.053 347.281 339.158 344.298 339.86 343.597C347.931 343.246 355.826 343.07 363.545 343.07C371.616 342.719 379.686 342.544 387.757 342.544C396.88 342.544 406.003 342.719 415.126 343.07C424.249 343.421 433.548 343.947 443.022 344.649C444.074 359.737 444.776 374.65 445.127 389.388C445.478 403.774 445.653 418.336 445.653 433.073C445.653 473.426 444.601 513.251 442.495 552.551C440.741 591.851 439.864 631.677 439.864 672.029C439.864 677.994 439.864 684.134 439.864 690.45Z" fill="white"/>
</g>
<defs>
<clipPath id="clip0_2313_105">
<rect width="1080" height="1080" fill="white"/>
</clipPath>
</defs>
</svg>
